<svg id="mewa" xmlns="http://www.w3.org/2000/svg" width="607.398" height="115.659" viewBox="0 0 607.398 115.659">
  <g id="Group_12172" data-name="Group 12172" transform="translate(0 0)">
    <g id="Group_12198" data-name="Group 12198" transform="translate(492.065)">
      <path id="Path_5099" data-name="Path 5099" d="M592.538,231.311a57.83,57.83,0,1,0,57.667,57.829,57.813,57.813,0,0,0-57.667-57.829m.009,109.886a52.057,52.057,0,1,1,51.9-52.058,51.982,51.982,0,0,1-51.9,52.058" transform="translate(-534.873 -231.311)" fill="#61b254"/>
      <path id="Path_5100" data-name="Path 5100" d="M611.8,277.888a15.863,15.863,0,0,0-6.66-1.2c-5.367,0-13.59,1.674-23.881,9.238l-.045.035L581,285.8c-10.29-7.563-18.387-9.107-23.752-9.107a15.857,15.857,0,0,0-6.661,1.2c-.128.075-.368.214-.309.443.038.142.167.215.377.215a1.08,1.08,0,0,0,.195-.015,15.64,15.64,0,0,1,3.873-.469c6.958,0,15.952,5.263,23.153,10.5-1.455,1.193-2.944,2.491-4.472,3.92-.214-.188-.288-.235-.493-.408a6.38,6.38,0,0,0-1.862-1.123,1.935,1.935,0,0,0-1.091-.089,1.443,1.443,0,0,0-1.072,1.621,1.269,1.269,0,0,0,1.1,1.238,1.187,1.187,0,0,0,1.072-.6c.274.224.538.441.774.669.111.108.219.217.328.326l-.446.391c-.349.307-.693.608-1.041.9a9.89,9.89,0,0,1-2.252,1.511,2.012,2.012,0,0,1-.926.222,3.494,3.494,0,0,1-.511-.111l-.125-.036a.159.159,0,0,1-.048-.023,1.385,1.385,0,0,0-.332-.12.994.994,0,0,0-.153-.014.683.683,0,0,0-.613.359,1.322,1.322,0,0,0-.106.921,1.4,1.4,0,0,0,.332.575,2.973,2.973,0,0,0,1.952,1.044,3.718,3.718,0,0,0,.421.023,4,4,0,0,0,.429-.023,5.8,5.8,0,0,0,1.834-.545,15.188,15.188,0,0,0,3.083-1.968l.91-.729c.3.286.61.578.926.863a4.21,4.21,0,0,0,1.419.906,1.562,1.562,0,0,0,.51.083,1.994,1.994,0,0,0,.2-.012c.08-.009.156-.021.234-.035a1.328,1.328,0,0,0,.988-1.136,1.533,1.533,0,0,0-.572-1.514,1.071,1.071,0,0,0-1.363.154,1.025,1.025,0,0,0-.149.165c-.238-.236-.466-.488-.7-.747,1.506-1.362,3.333-2.763,5.07-4.151,1.756,1.388,3.688,2.789,5.194,4.151-.234.259-.464.511-.7.747a1.371,1.371,0,0,0-.148-.165,1.076,1.076,0,0,0-1.367-.154,1.537,1.537,0,0,0-.573,1.514,1.337,1.337,0,0,0,.99,1.136c.08.014.156.026.236.035s.135.012.2.012a1.547,1.547,0,0,0,.509-.083,4.193,4.193,0,0,0,1.42-.906c.316-.285.625-.577.924-.863l.912.729a15.187,15.187,0,0,0,3.081,1.968,5.825,5.825,0,0,0,1.836.545,3.986,3.986,0,0,0,.429.023,3.661,3.661,0,0,0,.418-.023,2.98,2.98,0,0,0,1.954-1.044,1.4,1.4,0,0,0,.33-.575,1.334,1.334,0,0,0-.1-.921.686.686,0,0,0-.615-.359,1,1,0,0,0-.153.014,1.368,1.368,0,0,0-.33.12.227.227,0,0,1-.047.023l-.127.036a3.538,3.538,0,0,1-.512.111,2.023,2.023,0,0,1-.926-.222,9.925,9.925,0,0,1-2.251-1.511c-.349-.29-.691-.591-1.04-.9l-.446-.391c.111-.109.217-.219.328-.326.236-.227.5-.445.775-.669a1.184,1.184,0,0,0,1.071.6,1.269,1.269,0,0,0,1.1-1.238,1.442,1.442,0,0,0-1.072-1.621,1.941,1.941,0,0,0-1.093.089,6.4,6.4,0,0,0-1.862,1.123c-.207.174-.28.221-.493.408-1.482-1.384-3.022-2.742-4.456-3.93,7.2-5.234,16.185-10.49,23.139-10.49a15.639,15.639,0,0,1,3.871.469,1.117,1.117,0,0,0,.2.015c.208,0,.337-.073.377-.215.06-.229-.182-.368-.309-.443" transform="translate(-523.527 -197.879)" fill="#61b254"/>
      <path id="Path_5101" data-name="Path 5101" d="M571.042,279.136a24.379,24.379,0,0,0-1.482,3.916c.908-.74,3.644-1.292,4.816-1.544,8.381-1.813,8.9-9.429,9.156-10.922-.222.424-.811,1.322-5.941,1.558-2.682.122-7.138.452-9.45,4.863a12.586,12.586,0,0,1,.957,2.716c2.876-6.883,9.974-5.941,11.181-6.195-1.2.523-6.342.776-9.238,5.608" transform="translate(-510.362 -202.375)" fill="#61b254"/>
      <path id="Path_5102" data-name="Path 5102" d="M574.7,287.2l1.264-.625c-.309-13.5-7.6-14.271-11.126-14.431-5.129-.236-5.719-1.134-5.941-1.558.252,1.494.776,9.109,9.156,10.922,1.193.257,2.97.5,3.824,1.263-.979-8.823-8.26-8.606-9.727-9.246,1.384.293,11.761-1.907,11.28,13.05Z" transform="translate(-517.174 -202.375)" fill="#61b254"/>
      <path id="Path_5103" data-name="Path 5103" d="M565.549,262.31c.154,2.659,1.87,4.828,4.18,4.828s4.149-2.162,4.18-4.828c.049-3.694-4.18-10.731-4.18-10.731s-4.41,6.865-4.18,10.731m6,3.163a2.918,2.918,0,0,1-1.845.672,3.509,3.509,0,0,1-3.232-3.732,9.535,9.535,0,0,1,.741-2.814,5.667,5.667,0,0,0-.224,1.36c0,2.527,1.775,4.573,3.962,4.573a3.115,3.115,0,0,0,.6-.059" transform="translate(-512.279 -216.378)" fill="#61b254"/>
      <path id="Path_5104" data-name="Path 5104" d="M561.334,266.991c0,7.7,10.907,10.157,10.907,10.157v-2.392c0-7.986-10.907-10.153-10.907-10.153Z" transform="translate(-515.378 -206.783)" fill="#61b254"/>
      <path id="Path_5105" data-name="Path 5105" d="M568.265,274.759v2.388s10.91-2.457,10.91-10.155V264.6s-10.91,2.167-10.91,10.157" transform="translate(-510.271 -206.784)" fill="#61b254"/>
      <path id="Path_5106" data-name="Path 5106" d="M562.916,261.815c0,6.259,8.293,8.256,8.293,8.256V268.13c0-6.5-8.293-8.257-8.293-8.257Z" transform="translate(-514.212 -210.268)" fill="#61b254"/>
      <path id="Path_5107" data-name="Path 5107" d="M568.187,268.129v1.942s8.293-2,8.293-8.256v-1.94s-8.293,1.761-8.293,8.255" transform="translate(-510.329 -210.267)" fill="#61b254"/>
      <path id="Path_5108" data-name="Path 5108" d="M551.24,263.68c7.206-7.258,11.833-8.548,17.6-9.453-5.9,3.757-11.412,12.492-9.7,18.642,3.118-6.525,8.559-12.9,13.573-15.223a11.476,11.476,0,0,0-.194,13.2c.632-5.505,4.477-10.8,7.692-14.34,3.215,3.544,7.062,8.835,7.694,14.34a11.469,11.469,0,0,0-.2-13.2c5.014,2.322,10.456,8.7,13.573,15.223,1.721-6.15-3.793-14.886-9.7-18.642,5.763.9,10.391,2.2,17.6,9.453-2.379-9.71-10.751-13.076-17.446-14.276,7.367-.632,8.828.12,15.334,2.819-7.063-6.961-12.015-8.22-19.092-7.539a9.39,9.39,0,0,1,4.159-2.107c-2.97-1.171-7.612-.556-9.419,1.177,0,0-.356-3.189-2.487-4.476v-.03l-.023.014-.021-.014v.03c-2.133,1.287-2.487,4.476-2.487,4.476-1.806-1.733-6.449-2.348-9.419-1.177a9.392,9.392,0,0,1,4.16,2.107c-7.076-.681-12.029.578-19.094,7.539,6.506-2.7,7.97-3.451,15.334-2.819-6.7,1.2-15.066,4.566-17.442,14.276" transform="translate(-522.815 -225.463)" fill="#61b254"/>
    </g>
    <path id="Path_5109" data-name="Path 5109" d="M260.58,287.719h-.045l-4.929-12.645h-3.579v16.458h2.232v-13.76h.045l5.44,13.76h1.466l5.462-13.76h.047v13.76h2.3V275.073h-3.579Z" transform="translate(-251.198 -199.069)" fill="#002846"/>
    <rect id="Rectangle_2023" data-name="Rectangle 2023" width="2.185" height="11.018" transform="translate(21.725 81.445)" fill="#002846"/>
    <path id="Path_5110" data-name="Path 5110" d="M265.288,275.1a1.394,1.394,0,0,0-1.014.406,1.357,1.357,0,0,0-.417,1.011,1.326,1.326,0,0,0,.417.988,1.388,1.388,0,0,0,1.014.408,1.465,1.465,0,0,0,1.026-.4,1.305,1.305,0,0,0,.425-1,1.345,1.345,0,0,0-.425-1.011,1.437,1.437,0,0,0-1.026-.406" transform="translate(-242.481 -199.049)" fill="#002846"/>
    <path id="Path_5111" data-name="Path 5111" d="M276.384,279.356a3.7,3.7,0,0,0-1.278-.964,4.294,4.294,0,0,0-1.836-.361,4.175,4.175,0,0,0-1.163.163,3.993,3.993,0,0,0-1.021.453,4.123,4.123,0,0,0-.825.674,3.182,3.182,0,0,0-.57.825h-.071c0-.233-.007-.523-.023-.872s-.038-.662-.069-.941h-2.068c.029.356.054.768.069,1.231s.024.844.024,1.139v8.647h2.183v-5.858a3.994,3.994,0,0,1,.825-2.638,2.649,2.649,0,0,1,2.128-.988,2.512,2.512,0,0,1,1.256.28,2.072,2.072,0,0,1,.766.743,3.053,3.053,0,0,1,.384,1.07,7.514,7.514,0,0,1,.106,1.278v6.113h2.185v-6.834a6.036,6.036,0,0,0-.245-1.744,3.9,3.9,0,0,0-.755-1.417" transform="translate(-239.827 -196.89)" fill="#002846"/>
    <rect id="Rectangle_2024" data-name="Rectangle 2024" width="2.185" height="11.018" transform="translate(41.276 81.445)" fill="#002846"/>
    <path id="Path_5112" data-name="Path 5112" d="M276.546,275.1a1.4,1.4,0,0,0-1.016.406,1.357,1.357,0,0,0-.417,1.011,1.326,1.326,0,0,0,.417.988,1.389,1.389,0,0,0,1.016.408,1.463,1.463,0,0,0,1.025-.4,1.3,1.3,0,0,0,.426-1,1.345,1.345,0,0,0-.426-1.011,1.435,1.435,0,0,0-1.025-.406" transform="translate(-234.188 -199.049)" fill="#002846"/>
    <path id="Path_5113" data-name="Path 5113" d="M285.807,283.924a4.587,4.587,0,0,0-1.174-.639,11.932,11.932,0,0,0-1.464-.443,7.7,7.7,0,0,1-1.884-.615,1.1,1.1,0,0,1-.625-1.033,1.186,1.186,0,0,1,.172-.663,1.437,1.437,0,0,1,.465-.441,2.184,2.184,0,0,1,.664-.255,3.374,3.374,0,0,1,.743-.082,3,3,0,0,1,1.511.382,2.877,2.877,0,0,1,1.047.99l1.511-1.28a3.792,3.792,0,0,0-1.709-1.348,5.872,5.872,0,0,0-2.291-.466,5.947,5.947,0,0,0-1.533.2,4.206,4.206,0,0,0-1.327.6,3.171,3.171,0,0,0-.94,1.047,3.041,3.041,0,0,0-.361,1.523,2.62,2.62,0,0,0,.292,1.29,2.748,2.748,0,0,0,.754.872,3.79,3.79,0,0,0,1.037.545q.568.2,1.127.337a9.847,9.847,0,0,1,2.15.7,1.207,1.207,0,0,1,.731,1.138,1.439,1.439,0,0,1-.186.768,1.4,1.4,0,0,1-.5.488,2.282,2.282,0,0,1-.7.269,3.861,3.861,0,0,1-.8.08,3.414,3.414,0,0,1-1.709-.441,3.584,3.584,0,0,1-1.221-1.094l-1.556,1.327a4.821,4.821,0,0,0,1.987,1.488,6.451,6.451,0,0,0,2.452.486,7.038,7.038,0,0,0,1.629-.186,4.026,4.026,0,0,0,1.405-.617,3.214,3.214,0,0,0,.988-1.1,3.376,3.376,0,0,0,.372-1.652,2.655,2.655,0,0,0-.28-1.254,2.751,2.751,0,0,0-.778-.919" transform="translate(-232.037 -196.89)" fill="#002846"/>
    <path id="Path_5114" data-name="Path 5114" d="M287.944,276.385h-2.162v3.161h-2.115v1.791h2.115v5.974a3.592,3.592,0,0,0,.827,2.579,3.146,3.146,0,0,0,2.383.861,5.9,5.9,0,0,0,.987-.082,5.552,5.552,0,0,0,.872-.221l-.069-1.791a2.622,2.622,0,0,1-.627.191,3.565,3.565,0,0,1-.651.064,1.489,1.489,0,0,1-1.186-.429,2.175,2.175,0,0,1-.372-1.424v-5.724h2.93v-1.791h-2.93Z" transform="translate(-227.887 -198.102)" fill="#002846"/>
    <path id="Path_5115" data-name="Path 5115" d="M292.651,278.623a3.834,3.834,0,0,0-1.36,1.572h-.069c0-.233-.007-.531-.023-.9s-.038-.683-.069-.962h-2.068c.029.356.054.768.069,1.231s.023.844.023,1.139v8.646h2.187v-5.787a4.785,4.785,0,0,1,.184-1.336,3.3,3.3,0,0,1,.57-1.127,2.788,2.788,0,0,1,.964-.778,3.026,3.026,0,0,1,1.372-.292,4.094,4.094,0,0,1,1,.115l.092-2.022a3.371,3.371,0,0,0-.859-.092,3.583,3.583,0,0,0-2.011.591" transform="translate(-223.912 -196.889)" fill="#002846"/>
    <path id="Path_5116" data-name="Path 5116" d="M298.9,286.853h-.045l-3.418-8.647H293l4.717,11.018-.7,1.838a4.717,4.717,0,0,1-.766,1.36,1.622,1.622,0,0,1-1.28.476,3.471,3.471,0,0,1-1.092-.186l-.21,1.93a5.094,5.094,0,0,0,.733.127,7.058,7.058,0,0,0,.709.035,4.247,4.247,0,0,0,1.407-.208,3.2,3.2,0,0,0,1.035-.592,3.8,3.8,0,0,0,.768-.931,8.929,8.929,0,0,0,.6-1.244l5.346-13.621h-2.324Z" transform="translate(-221.013 -196.761)" fill="#002846"/>
    <path id="Path_5117" data-name="Path 5117" d="M313.808,279.658a5.78,5.78,0,0,0-1.895-1.2,6.611,6.611,0,0,0-4.695,0,5.494,5.494,0,0,0-3.128,3.022,5.867,5.867,0,0,0-.453,2.336,5.957,5.957,0,0,0,.453,2.348,5.691,5.691,0,0,0,1.243,1.848,5.508,5.508,0,0,0,1.884,1.209,6.637,6.637,0,0,0,4.695,0,5.555,5.555,0,0,0,3.151-3.057,5.99,5.99,0,0,0,.453-2.348,5.9,5.9,0,0,0-.453-2.336,5.5,5.5,0,0,0-1.256-1.825m-.815,5.679a3.923,3.923,0,0,1-.71,1.275,3.383,3.383,0,0,1-1.155.882,4,4,0,0,1-3.149,0,3.352,3.352,0,0,1-1.155-.882,3.958,3.958,0,0,1-.71-1.275,4.755,4.755,0,0,1,0-3.013,3.829,3.829,0,0,1,.71-1.263,3.4,3.4,0,0,1,1.155-.868,3.979,3.979,0,0,1,3.149,0,3.436,3.436,0,0,1,1.155.868,3.8,3.8,0,0,1,.71,1.263,4.755,4.755,0,0,1,0,3.013" transform="translate(-213.173 -196.89)" fill="#002846"/>
    <path id="Path_5118" data-name="Path 5118" d="M315.617,274.619a3.453,3.453,0,0,0-1.278.954,3.719,3.719,0,0,0-.721,1.429,6.937,6.937,0,0,0-.22,1.8v2.3h-2.187v1.791H313.4v9.229h2.185v-9.229h2.557V281.1h-2.557v-2.3a6.746,6.746,0,0,1,.07-.988,2.448,2.448,0,0,1,.279-.848,1.552,1.552,0,0,1,.592-.592,2.01,2.01,0,0,1,1.011-.222,3.423,3.423,0,0,1,.582.047c.17.031.34.069.511.116l.257-1.883a5.15,5.15,0,0,0-1.372-.163,4.624,4.624,0,0,0-1.895.349" transform="translate(-207.593 -199.661)" fill="#002846"/>
    <path id="Path_5119" data-name="Path 5119" d="M322.4,284h7.763v-1.975H322.4V277.1h8.253v-2.022H320.1v16.458H331v-2.046h-8.6Z" transform="translate(-201.044 -199.068)" fill="#002846"/>
    <path id="Path_5120" data-name="Path 5120" d="M336.949,279.356a3.713,3.713,0,0,0-1.278-.964,4.293,4.293,0,0,0-1.836-.361,4.168,4.168,0,0,0-1.164.163,4.016,4.016,0,0,0-1.021.453,4.113,4.113,0,0,0-.825.674,3.137,3.137,0,0,0-.571.825h-.069c0-.233-.007-.523-.023-.872s-.038-.662-.069-.941h-2.069c.029.356.054.768.07,1.231s.023.844.023,1.139v8.647H330.3v-5.858a3.994,3.994,0,0,1,.825-2.638,2.647,2.647,0,0,1,2.128-.988,2.512,2.512,0,0,1,1.256.28,2.059,2.059,0,0,1,.766.743,3.049,3.049,0,0,1,.384,1.07,7.526,7.526,0,0,1,.106,1.278v6.113h2.185v-6.834a6.1,6.1,0,0,0-.243-1.744,3.952,3.952,0,0,0-.757-1.417" transform="translate(-195.206 -196.89)" fill="#002846"/>
    <path id="Path_5121" data-name="Path 5121" d="M340.6,286.877h-.047l-3.23-8.672H334.9l4.486,11.02h2.371l4.417-11.02h-2.324Z" transform="translate(-190.137 -196.761)" fill="#002846"/>
    <path id="Path_5122" data-name="Path 5122" d="M343.855,275.1a1.394,1.394,0,0,0-1.014.406,1.356,1.356,0,0,0-.417,1.011,1.326,1.326,0,0,0,.417.988,1.388,1.388,0,0,0,1.014.408,1.464,1.464,0,0,0,1.026-.4,1.3,1.3,0,0,0,.426-1,1.345,1.345,0,0,0-.426-1.011,1.436,1.436,0,0,0-1.026-.406" transform="translate(-184.596 -199.049)" fill="#002846"/>
    <rect id="Rectangle_2025" data-name="Rectangle 2025" width="2.185" height="11.018" transform="translate(158.177 81.445)" fill="#002846"/>
    <path id="Path_5123" data-name="Path 5123" d="M349.617,278.623a3.833,3.833,0,0,0-1.36,1.572h-.069c0-.233-.009-.531-.024-.9s-.036-.683-.069-.962h-2.068c.031.356.054.768.071,1.231s.023.844.023,1.139v8.646H348.3v-5.787a4.779,4.779,0,0,1,.186-1.336,3.276,3.276,0,0,1,.57-1.127,2.77,2.77,0,0,1,.964-.778,3.032,3.032,0,0,1,1.372-.292,4.093,4.093,0,0,1,1,.115l.092-2.022a3.375,3.375,0,0,0-.86-.092,3.583,3.583,0,0,0-2.011.591" transform="translate(-181.943 -196.889)" fill="#002846"/>
    <path id="Path_5124" data-name="Path 5124" d="M360.439,279.658a5.779,5.779,0,0,0-1.895-1.2,6.616,6.616,0,0,0-4.7,0,5.5,5.5,0,0,0-3.126,3.022,5.869,5.869,0,0,0-.455,2.336,5.96,5.96,0,0,0,.455,2.348,5.7,5.7,0,0,0,1.243,1.848,5.52,5.52,0,0,0,1.883,1.209,6.641,6.641,0,0,0,4.7,0,5.673,5.673,0,0,0,1.895-1.209,5.611,5.611,0,0,0,1.254-1.848,5.962,5.962,0,0,0,.455-2.348,5.871,5.871,0,0,0-.455-2.336,5.5,5.5,0,0,0-1.254-1.825m-.815,5.679a3.925,3.925,0,0,1-.71,1.275,3.384,3.384,0,0,1-1.155.882,4,4,0,0,1-3.149,0,3.354,3.354,0,0,1-1.155-.882,3.929,3.929,0,0,1-.71-1.275,4.756,4.756,0,0,1,0-3.013,3.8,3.8,0,0,1,.71-1.263,3.405,3.405,0,0,1,1.155-.868,3.978,3.978,0,0,1,3.149,0,3.437,3.437,0,0,1,1.155.868,3.8,3.8,0,0,1,.71,1.263,4.756,4.756,0,0,1,0,3.013" transform="translate(-178.818 -196.89)" fill="#002846"/>
    <path id="Path_5125" data-name="Path 5125" d="M367.721,279.356a3.694,3.694,0,0,0-1.278-.964,4.293,4.293,0,0,0-1.836-.361,4.157,4.157,0,0,0-1.164.163,4,4,0,0,0-1.021.453,4.188,4.188,0,0,0-.827.674,3.168,3.168,0,0,0-.568.825h-.071c0-.233-.007-.523-.023-.872s-.038-.662-.069-.941h-2.07c.031.356.056.768.07,1.231s.026.844.026,1.139v8.647h2.183v-5.858a3.994,3.994,0,0,1,.825-2.638,2.647,2.647,0,0,1,2.127-.988,2.516,2.516,0,0,1,1.256.28,2.071,2.071,0,0,1,.766.743,3.052,3.052,0,0,1,.384,1.07,7.545,7.545,0,0,1,.106,1.278v6.113h2.185v-6.834a6.029,6.029,0,0,0-.245-1.744,3.884,3.884,0,0,0-.756-1.417" transform="translate(-172.536 -196.89)" fill="#002846"/>
    <path id="Path_5126" data-name="Path 5126" d="M382.6,279.356a3.711,3.711,0,0,0-1.278-.964,4.637,4.637,0,0,0-4.022.208,3.926,3.926,0,0,0-1.556,1.638,3.451,3.451,0,0,0-1.407-1.7,3.988,3.988,0,0,0-2.013-.511,3.8,3.8,0,0,0-2.171.617,3.722,3.722,0,0,0-1.337,1.5h-.071c0-.233-.007-.523-.023-.872s-.038-.662-.069-.941h-2.069c.03.356.054.768.07,1.231s.024.844.024,1.139v8.647h2.185v-5.858a4.062,4.062,0,0,1,.8-2.638,2.484,2.484,0,0,1,2.009-.988,2.4,2.4,0,0,1,1.093.222,1.939,1.939,0,0,1,.721.6,2.392,2.392,0,0,1,.4.917A5.687,5.687,0,0,1,374,282.8v6.554h2.185V283.4a5.354,5.354,0,0,1,.153-1.278,3.411,3.411,0,0,1,.488-1.127,2.662,2.662,0,0,1,.87-.815,2.479,2.479,0,0,1,1.28-.314,2.269,2.269,0,0,1,1.185.28,2.119,2.119,0,0,1,.743.743,3.209,3.209,0,0,1,.4,1.07,6.712,6.712,0,0,1,.116,1.278v6.113H383.6v-6.834a6.048,6.048,0,0,0-.245-1.744,3.893,3.893,0,0,0-.756-1.417" transform="translate(-166.796 -196.89)" fill="#002846"/>
    <path id="Path_5127" data-name="Path 5127" d="M387.68,279.565A4.544,4.544,0,0,0,386,278.427a6.229,6.229,0,0,0-4.462.035,5.479,5.479,0,0,0-1.817,1.2,5.413,5.413,0,0,0-1.2,1.848,6.328,6.328,0,0,0-.429,2.36,6.14,6.14,0,0,0,.441,2.371,5.429,5.429,0,0,0,1.211,1.825,5.344,5.344,0,0,0,1.836,1.172,6.68,6.68,0,0,0,4.986-.134,5.52,5.52,0,0,0,2.081-1.725l-1.535-1.233a3.937,3.937,0,0,1-1.278,1.186,3.69,3.69,0,0,1-1.929.488,3.641,3.641,0,0,1-1.36-.254,3.6,3.6,0,0,1-1.127-.705,3.406,3.406,0,0,1-.78-1.063,3.207,3.207,0,0,1-.313-1.3h8.762a2.668,2.668,0,0,0,.024-.372v-.373a7.179,7.179,0,0,0-.372-2.381,5.131,5.131,0,0,0-1.061-1.8m-7.353,3.3a3.15,3.15,0,0,1,.337-1.221,3.53,3.53,0,0,1,.743-.986,3.4,3.4,0,0,1,1.07-.664,3.521,3.521,0,0,1,1.313-.243,3.368,3.368,0,0,1,1.337.243,2.741,2.741,0,0,1,.953.664,2.8,2.8,0,0,1,.58.986,4.161,4.161,0,0,1,.222,1.221Z" transform="translate(-158.316 -196.89)" fill="#002846"/>
    <path id="Path_5128" data-name="Path 5128" d="M395.051,279.356a3.7,3.7,0,0,0-1.277-.964,4.307,4.307,0,0,0-1.837-.361,4.178,4.178,0,0,0-1.164.163,4.022,4.022,0,0,0-1.021.453,4.129,4.129,0,0,0-.825.674,3.17,3.17,0,0,0-.57.825h-.071c0-.233-.007-.523-.023-.872s-.038-.662-.069-.941h-2.068c.029.356.054.768.069,1.231s.024.844.024,1.139v8.647H388.4v-5.858a3.994,3.994,0,0,1,.825-2.638,2.65,2.65,0,0,1,2.128-.988,2.511,2.511,0,0,1,1.256.28,2.057,2.057,0,0,1,.766.743,3.051,3.051,0,0,1,.384,1.07,7.532,7.532,0,0,1,.106,1.278v6.113h2.185v-6.834a6.038,6.038,0,0,0-.245-1.744,3.866,3.866,0,0,0-.755-1.417" transform="translate(-152.399 -196.89)" fill="#002846"/>
    <path id="Path_5129" data-name="Path 5129" d="M397.2,276.385H395.04v3.161h-2.115v1.791h2.115v5.974a3.593,3.593,0,0,0,.827,2.579,3.147,3.147,0,0,0,2.383.861,5.928,5.928,0,0,0,.988-.082,5.578,5.578,0,0,0,.87-.221l-.07-1.791a2.594,2.594,0,0,1-.627.191,3.569,3.569,0,0,1-.651.064,1.49,1.49,0,0,1-1.186-.429,2.174,2.174,0,0,1-.372-1.424v-5.724h2.93v-1.791H397.2Z" transform="translate(-147.389 -198.102)" fill="#002846"/>
    <path id="Path_5130" data-name="Path 5130" d="M417.043,288.184H417l-3.835-13.111h-2.534l-3.859,13.111h-.047L403.1,275.074h-2.487l4.835,16.458h2.393l4-13.227h.045l4,13.227h2.395l4.835-16.458h-2.442Z" transform="translate(-141.729 -199.069)" fill="#002846"/>
    <path id="Path_5131" data-name="Path 5131" d="M423.6,287.168v-4.813a5.054,5.054,0,0,0-.28-1.7,3.732,3.732,0,0,0-.837-1.372,3.826,3.826,0,0,0-1.429-.919,5.7,5.7,0,0,0-2.056-.337,7.13,7.13,0,0,0-2.523.441,5.906,5.906,0,0,0-1.987,1.21l1.162,1.393a4.412,4.412,0,0,1,1.384-.917,4.344,4.344,0,0,1,1.754-.361,3.074,3.074,0,0,1,1.976.594,2.2,2.2,0,0,1,.745,1.825v.3q-1.394,0-2.768.116a9.972,9.972,0,0,0-2.465.5,4.289,4.289,0,0,0-1.766,1.115,2.821,2.821,0,0,0-.674,1.989,3.119,3.119,0,0,0,.384,1.6,3.206,3.206,0,0,0,.964,1.044,3.932,3.932,0,0,0,1.29.57,5.642,5.642,0,0,0,1.362.175,4.576,4.576,0,0,0,2.173-.488,4.263,4.263,0,0,0,1.523-1.37h.069a6.8,6.8,0,0,0,.186,1.579h1.975a6.073,6.073,0,0,1-.127-1.011c-.023-.41-.035-.8-.035-1.172m-2.091-2.489a3.334,3.334,0,0,1-.827,2.313,3.01,3.01,0,0,1-2.359.919,3.915,3.915,0,0,1-.813-.083,2.065,2.065,0,0,1-.723-.29,1.648,1.648,0,0,1-.523-.533,1.548,1.548,0,0,1-.2-.815,1.428,1.428,0,0,1,.464-1.115,2.984,2.984,0,0,1,1.174-.629,7.846,7.846,0,0,1,1.581-.28c.582-.045,1.143-.069,1.685-.069h.537Z" transform="translate(-131.987 -196.89)" fill="#002846"/>
    <path id="Path_5132" data-name="Path 5132" d="M424.653,276.385h-2.161v3.161h-2.115v1.791h2.115v5.974a3.593,3.593,0,0,0,.825,2.579,3.151,3.151,0,0,0,2.383.861,5.931,5.931,0,0,0,.988-.082,5.6,5.6,0,0,0,.872-.221l-.07-1.791a2.657,2.657,0,0,1-.629.191,3.552,3.552,0,0,1-.651.064,1.485,1.485,0,0,1-1.184-.429,2.164,2.164,0,0,1-.373-1.424v-5.724h2.93v-1.791h-2.93Z" transform="translate(-127.164 -198.102)" fill="#002846"/>
    <path id="Path_5133" data-name="Path 5133" d="M435,279.565a4.552,4.552,0,0,0-1.674-1.138,6.234,6.234,0,0,0-4.464.035,5.48,5.48,0,0,0-1.817,1.2,5.361,5.361,0,0,0-1.2,1.848,6.293,6.293,0,0,0-.431,2.36,6.137,6.137,0,0,0,.441,2.371,5.456,5.456,0,0,0,1.21,1.825,5.362,5.362,0,0,0,1.836,1.172,6.679,6.679,0,0,0,4.986-.134,5.52,5.52,0,0,0,2.081-1.725l-1.535-1.233a3.955,3.955,0,0,1-1.278,1.186,3.689,3.689,0,0,1-1.929.488,3.643,3.643,0,0,1-2.487-.959,3.372,3.372,0,0,1-.778-1.063,3.206,3.206,0,0,1-.314-1.3h8.763a2.969,2.969,0,0,0,.024-.372v-.373a7.178,7.178,0,0,0-.374-2.381,5.159,5.159,0,0,0-1.061-1.8m-7.353,3.3a3.143,3.143,0,0,1,.337-1.221,3.492,3.492,0,0,1,.743-.986,3.425,3.425,0,0,1,1.07-.664,3.527,3.527,0,0,1,1.313-.243,3.374,3.374,0,0,1,1.338.243,2.741,2.741,0,0,1,.953.664,2.8,2.8,0,0,1,.58.986,4.05,4.05,0,0,1,.221,1.221Z" transform="translate(-123.456 -196.89)" fill="#002846"/>
    <path id="Path_5134" data-name="Path 5134" d="M437.031,278.623a3.825,3.825,0,0,0-1.36,1.572H435.6q0-.349-.024-.9c-.016-.363-.038-.683-.069-.962h-2.067c.03.356.052.768.069,1.231s.021.844.021,1.139v8.646h2.187v-5.787a4.715,4.715,0,0,1,.186-1.336,3.239,3.239,0,0,1,.57-1.127,2.785,2.785,0,0,1,.964-.778,3.026,3.026,0,0,1,1.372-.292,4.092,4.092,0,0,1,1,.115l.092-2.022a3.379,3.379,0,0,0-.861-.092,3.579,3.579,0,0,0-2.01.591" transform="translate(-117.539 -196.889)" fill="#002846"/>
    <path id="Path_5135" data-name="Path 5135" d="M456.074,282.922h-2.557l-2.07,3.487-3.279-3.371a10.671,10.671,0,0,0,1.339-.743,5.844,5.844,0,0,0,1.125-.954,4.416,4.416,0,0,0,.78-1.186,3.54,3.54,0,0,0,.292-1.464,3.788,3.788,0,0,0-.351-1.672,3.578,3.578,0,0,0-.929-1.211,3.929,3.929,0,0,0-1.348-.733,5.376,5.376,0,0,0-1.627-.243,5.623,5.623,0,0,0-1.652.243,4.147,4.147,0,0,0-1.4.745,3.616,3.616,0,0,0-.98,1.244,3.967,3.967,0,0,0-.359,1.744,3.9,3.9,0,0,0,.551,2.034,9.238,9.238,0,0,0,1.355,1.732,11.2,11.2,0,0,0-1.381.768,5.858,5.858,0,0,0-1.192,1.023,4.848,4.848,0,0,0-.83,1.313,4.167,4.167,0,0,0-.314,1.662,4.473,4.473,0,0,0,.429,2.011,4.313,4.313,0,0,0,1.162,1.464,5.121,5.121,0,0,0,1.709.9,6.926,6.926,0,0,0,2.044.3,5.9,5.9,0,0,0,2.9-.65,7.1,7.1,0,0,0,2.1-1.815l2.046,2.164h3.046l-3.765-3.883Zm-10.162-5.648a2.169,2.169,0,0,1,1.572-.6,2.04,2.04,0,0,1,2.1,2.091,2.06,2.06,0,0,1-.231.976,3.323,3.323,0,0,1-.6.815,4.082,4.082,0,0,1-.854.651q-.485.279-1,.511c-.186-.17-.373-.365-.566-.58a4.8,4.8,0,0,1-.519-.709,4.909,4.909,0,0,1-.382-.78,2.24,2.24,0,0,1-.151-.79,2.1,2.1,0,0,1,.625-1.58m2.723,12.378a3.616,3.616,0,0,1-2,.523,3.4,3.4,0,0,1-1.141-.2,3.035,3.035,0,0,1-.986-.57,2.718,2.718,0,0,1-.941-2.091,2.842,2.842,0,0,1,.719-2.023,5.61,5.61,0,0,1,1.931-1.278l3.9,4.092a5.165,5.165,0,0,1-1.487,1.546" transform="translate(-111.79 -199.247)" fill="#002846"/>
    <path id="Path_5136" data-name="Path 5136" d="M460.587,275.074l-7.136,16.457h2.557l1.65-4.045h7.81l1.674,4.045h2.6l-7.065-16.457Zm-2.115,10.389,3.091-7.716,3.069,7.716Z" transform="translate(-102.796 -199.068)" fill="#002846"/>
    <path id="Path_5137" data-name="Path 5137" d="M473.124,280.1h-.049a3.882,3.882,0,0,0-1.707-1.558,5.244,5.244,0,0,0-2.267-.511,5.565,5.565,0,0,0-2.278.453,5.187,5.187,0,0,0-1.742,1.231,5.5,5.5,0,0,0-1.117,1.825,6.246,6.246,0,0,0-.394,2.232,6.153,6.153,0,0,0,.394,2.22,5.4,5.4,0,0,0,1.117,1.8,5.119,5.119,0,0,0,1.754,1.21,5.755,5.755,0,0,0,2.291.441,5.188,5.188,0,0,0,2.23-.49,3.875,3.875,0,0,0,1.65-1.417h.049v1.417a6.236,6.236,0,0,1-.2,1.6,3.3,3.3,0,0,1-.65,1.29,3.077,3.077,0,0,1-1.2.86,4.722,4.722,0,0,1-1.839.314,5.349,5.349,0,0,1-2.218-.488,5.206,5.206,0,0,1-1.8-1.3l-1.395,1.7a7.327,7.327,0,0,0,2.5,1.476,8.482,8.482,0,0,0,2.894.523,7.183,7.183,0,0,0,2.883-.511,5.149,5.149,0,0,0,1.883-1.36,5.076,5.076,0,0,0,1.023-1.952,8.8,8.8,0,0,0,.3-2.313V278.333h-2.114Zm-.175,5.15a3.711,3.711,0,0,1-.759,1.231,3.507,3.507,0,0,1-1.19.827,3.835,3.835,0,0,1-1.537.3,3.5,3.5,0,0,1-1.541-.326,3.685,3.685,0,0,1-1.155-.86,3.644,3.644,0,0,1-.723-1.233,4.417,4.417,0,0,1-.243-1.462,4.608,4.608,0,0,1,.243-1.5,3.493,3.493,0,0,1,.723-1.231,3.547,3.547,0,0,1,2.7-1.151,3.632,3.632,0,0,1,1.527.314,3.744,3.744,0,0,1,1.19.847,3.823,3.823,0,0,1,.769,1.231,4.12,4.12,0,0,1,.267,1.49,4.264,4.264,0,0,1-.267,1.521" transform="translate(-95.341 -196.89)" fill="#002846"/>
    <path id="Path_5138" data-name="Path 5138" d="M475.98,278.623a3.817,3.817,0,0,0-1.358,1.572h-.069c0-.233-.009-.531-.025-.9s-.038-.683-.069-.962H472.39c.029.356.054.768.069,1.231s.023.844.023,1.139v8.646h2.187v-5.787a4.719,4.719,0,0,1,.186-1.336,3.269,3.269,0,0,1,.568-1.127,2.788,2.788,0,0,1,.964-.778,3.026,3.026,0,0,1,1.372-.292,4.12,4.12,0,0,1,1,.115l.09-2.022a3.374,3.374,0,0,0-.86-.092,3.58,3.58,0,0,0-2.011.591" transform="translate(-88.843 -196.889)" fill="#002846"/>
    <rect id="Rectangle_2026" data-name="Rectangle 2026" width="2.187" height="11.018" transform="translate(392.078 81.445)" fill="#002846"/>
    <path id="Path_5139" data-name="Path 5139" d="M478.53,275.1a1.393,1.393,0,0,0-1.013.406,1.356,1.356,0,0,0-.417,1.011,1.326,1.326,0,0,0,.417.988,1.387,1.387,0,0,0,1.013.408,1.469,1.469,0,0,0,1.028-.4,1.3,1.3,0,0,0,.426-1,1.345,1.345,0,0,0-.426-1.011,1.44,1.44,0,0,0-1.028-.406" transform="translate(-85.372 -199.049)" fill="#002846"/>
    <path id="Path_5140" data-name="Path 5140" d="M487.791,287.493a3.759,3.759,0,0,1-3.057,0,3.42,3.42,0,0,1-1.14-.872,3.838,3.838,0,0,1-.709-1.266,4.794,4.794,0,0,1,0-3.024,3.839,3.839,0,0,1,.709-1.266,3.484,3.484,0,0,1,1.127-.872,3.412,3.412,0,0,1,1.523-.325,3.207,3.207,0,0,1,1.488.359,2.682,2.682,0,0,1,1.045.9l1.581-1.278a4.226,4.226,0,0,0-1.825-1.349,6.143,6.143,0,0,0-2.311-.466,6.435,6.435,0,0,0-2.338.419,5.528,5.528,0,0,0-1.871,1.186,5.357,5.357,0,0,0-1.231,1.837,6.556,6.556,0,0,0,.01,4.764,5.441,5.441,0,0,0,1.244,1.825,5.611,5.611,0,0,0,1.872,1.174,6.468,6.468,0,0,0,2.359.419,5.9,5.9,0,0,0,2.37-.453,4.755,4.755,0,0,0,1.746-1.268l-1.468-1.325a3.089,3.089,0,0,1-1.125.884" transform="translate(-82.986 -196.89)" fill="#002846"/>
    <path id="Path_5141" data-name="Path 5141" d="M497.148,286.853v-8.647h-2.187v5.858a4.014,4.014,0,0,1-.815,2.638,2.63,2.63,0,0,1-2.136.988,2.519,2.519,0,0,1-1.257-.28,2.086,2.086,0,0,1-.766-.743,3.092,3.092,0,0,1-.384-1.08,7.744,7.744,0,0,1-.1-1.292v-6.089h-2.185v6.834a6.025,6.025,0,0,0,.245,1.744,4.133,4.133,0,0,0,.741,1.429,3.4,3.4,0,0,0,1.28.964,4.453,4.453,0,0,0,1.848.349,4.073,4.073,0,0,0,2.2-.615,3.589,3.589,0,0,0,1.405-1.5h.049c0,.234.007.524.021.872s.04.663.069.941h2.072q-.05-.534-.071-1.231c-.016-.465-.023-.844-.023-1.139" transform="translate(-77.848 -196.761)" fill="#002846"/>
    <rect id="Rectangle_2027" data-name="Rectangle 2027" width="2.185" height="17.574" transform="translate(423.135 74.889)" fill="#002846"/>
    <path id="Path_5142" data-name="Path 5142" d="M501.871,276.385h-2.162v3.161h-2.115v1.791h2.115v5.974a3.592,3.592,0,0,0,.825,2.579,3.153,3.153,0,0,0,2.385.861,5.893,5.893,0,0,0,.987-.082,5.548,5.548,0,0,0,.872-.221l-.069-1.791a2.611,2.611,0,0,1-.629.191,3.534,3.534,0,0,1-.651.064,1.487,1.487,0,0,1-1.184-.429,2.165,2.165,0,0,1-.372-1.424v-5.724h2.93v-1.791h-2.93Z" transform="translate(-70.275 -198.102)" fill="#002846"/>
    <path id="Path_5143" data-name="Path 5143" d="M512.82,286.853v-8.647h-2.185v5.858a4.016,4.016,0,0,1-.816,2.638,2.631,2.631,0,0,1-2.136.988,2.508,2.508,0,0,1-1.256-.28,2.078,2.078,0,0,1-.768-.743,3.1,3.1,0,0,1-.384-1.08,7.744,7.744,0,0,1-.1-1.292v-6.089h-2.185v6.834a6.029,6.029,0,0,0,.245,1.744,4.1,4.1,0,0,0,.742,1.429,3.4,3.4,0,0,0,1.28.964,4.455,4.455,0,0,0,1.848.349,4.073,4.073,0,0,0,2.2-.615,3.588,3.588,0,0,0,1.405-1.5h.047c0,.234.009.524.023.872s.04.663.069.941h2.072q-.049-.534-.071-1.231c-.016-.465-.023-.844-.023-1.139" transform="translate(-66.301 -196.761)" fill="#002846"/>
    <path id="Path_5144" data-name="Path 5144" d="M514.367,278.623a3.835,3.835,0,0,0-1.36,1.572h-.069c0-.233-.007-.531-.023-.9s-.038-.683-.069-.962h-2.069c.03.356.054.768.07,1.231s.022.844.022,1.139v8.646h2.185v-5.787a4.786,4.786,0,0,1,.186-1.336,3.253,3.253,0,0,1,.572-1.127,2.767,2.767,0,0,1,.962-.778,3.027,3.027,0,0,1,1.372-.292,4.091,4.091,0,0,1,1,.115l.092-2.022a3.375,3.375,0,0,0-.86-.092,3.58,3.58,0,0,0-2.011.591" transform="translate(-60.561 -196.889)" fill="#002846"/>
    <path id="Path_5145" data-name="Path 5145" d="M525.667,281.367a5.165,5.165,0,0,0-1.061-1.8,4.545,4.545,0,0,0-1.676-1.138,6.229,6.229,0,0,0-4.462.035,5.5,5.5,0,0,0-1.818,1.2,5.374,5.374,0,0,0-1.2,1.848,6.287,6.287,0,0,0-.431,2.36,6.138,6.138,0,0,0,.441,2.371,5.479,5.479,0,0,0,1.209,1.825,5.366,5.366,0,0,0,1.838,1.172,6.679,6.679,0,0,0,4.986-.134,5.5,5.5,0,0,0,2.079-1.725l-1.534-1.233a3.955,3.955,0,0,1-1.278,1.186,3.69,3.69,0,0,1-1.929.488,3.624,3.624,0,0,1-1.36-.254,3.576,3.576,0,0,1-1.127-.705,3.371,3.371,0,0,1-.78-1.063,3.207,3.207,0,0,1-.313-1.3h8.762a2.642,2.642,0,0,0,.026-.372v-.373a7.181,7.181,0,0,0-.373-2.381m-8.415,1.5a3.171,3.171,0,0,1,.335-1.221,3.534,3.534,0,0,1,.745-.986A3.4,3.4,0,0,1,519.4,280a3.517,3.517,0,0,1,1.311-.243,3.376,3.376,0,0,1,1.339.243,2.754,2.754,0,0,1,.953.664,2.8,2.8,0,0,1,.58.986,4.111,4.111,0,0,1,.22,1.221Z" transform="translate(-57.435 -196.89)" fill="#002846"/>
    <path id="Path_5146" data-name="Path 5146" d="M438.444,249.373h-3.673l0-1.207a1.688,1.688,0,0,1,.749-1.638,3.861,3.861,0,0,1,2.345-.642v-3.522l-.146.016c-.8.085-1.7.182-1.818.2a5.35,5.35,0,0,0-3.373,1.851,5.038,5.038,0,0,0-1.436,3.734v4.6h7.355Z" transform="translate(-119.272 -223.168)" fill="#002846"/>
    <path id="Path_5147" data-name="Path 5147" d="M425.319,251.377a3.09,3.09,0,0,0,2.286-.948,3.182,3.182,0,0,0,.926-2.263,3.14,3.14,0,0,0-.927-2.291,3.255,3.255,0,0,0-4.542.009,3,3,0,0,0-.955,2.282,3.263,3.263,0,0,0,3.213,3.211" transform="translate(-125.89 -221.258)" fill="#002846"/>
    <path id="Path_5148" data-name="Path 5148" d="M420.582,251.382a2.993,2.993,0,0,0,2.227-.952,3.268,3.268,0,0,0,0-4.55,3.2,3.2,0,0,0-4.519.005,3.1,3.1,0,0,0-.919,2.286,3.155,3.155,0,0,0,.924,2.256,3.083,3.083,0,0,0,2.287.955" transform="translate(-129.379 -221.263)" fill="#002846"/>
    <path id="Path_5149" data-name="Path 5149" d="M484.852,251.379a3.053,3.053,0,0,0,2.286-.948,3.176,3.176,0,0,0,.929-2.263,3.105,3.105,0,0,0-.926-2.282,3.237,3.237,0,0,0-4.548,0,3.031,3.031,0,0,0-.954,2.282,3.263,3.263,0,0,0,3.213,3.211" transform="translate(-82.029 -221.261)" fill="#002846"/>
    <path id="Path_5150" data-name="Path 5150" d="M480.115,251.376a3.015,3.015,0,0,0,2.226-.948,3.256,3.256,0,0,0,.007-4.545,3.227,3.227,0,0,0-4.519-.005,3.076,3.076,0,0,0-.929,2.287,3.135,3.135,0,0,0,.933,2.256,3.03,3.03,0,0,0,2.282.955" transform="translate(-85.52 -221.257)" fill="#002846"/>
    <path id="Path_5151" data-name="Path 5151" d="M493.262,275.989a9.415,9.415,0,0,0,3.159-6.16l.109-19.205-5.363-.026c0,12.409-.036,18.265-.059,18.561a4.158,4.158,0,0,1-1.356,2.774,4.872,4.872,0,0,1-3.074,1.054v5.4l1.3-.118a9.645,9.645,0,0,0,5.281-2.275" transform="translate(-78.316 -217.101)" fill="#002846"/>
    <path id="Path_5152" data-name="Path 5152" d="M507.752,275.989a9.416,9.416,0,0,0,3.161-6.16l.108-19.205-5.362-.026c0,12.409-.038,18.265-.061,18.561a4.15,4.15,0,0,1-1.356,2.774,4.866,4.866,0,0,1-3.072,1.054v5.4l1.3-.118a9.643,9.643,0,0,0,5.282-2.275" transform="translate(-67.639 -217.101)" fill="#002846"/>
    <path id="Path_5153" data-name="Path 5153" d="M478.74,269.091a9.985,9.985,0,0,0,10.091,0,10.347,10.347,0,0,0,3.678-3.68,9.765,9.765,0,0,0,1.374-5.047c0-2.688-.038-7.581-.109-9.722l-10.342-.08a9.77,9.77,0,0,0-4.958,1.282A9.258,9.258,0,0,0,475,255.373a10.157,10.157,0,0,0-1.256,4.991,9.924,9.924,0,0,0,1.343,5.051,10.113,10.113,0,0,0,3.652,3.677m1.581-11.945a4.065,4.065,0,0,1,3.105-1.27l5.078.064v4.424a4.518,4.518,0,0,1-1.377,3.347,4.632,4.632,0,0,1-6.628,0,4.834,4.834,0,0,1-.179-6.565" transform="translate(-87.845 -217.128)" fill="#002846"/>
    <path id="Path_5154" data-name="Path 5154" d="M501.527,274.019V263.106c.038-2.9.057-11.431.057-17.887l-5.374-.042c0,6.244-.021,15.339-.057,17.93v10.912h5.374" transform="translate(-71.335 -221.095)" fill="#002846"/>
    <path id="Path_5155" data-name="Path 5155" d="M506.523,251.139a2.971,2.971,0,0,0,2.226-.955,3.116,3.116,0,0,0,.929-2.256,3.081,3.081,0,0,0-.928-2.256,3.185,3.185,0,0,0-5.441,2.256,3.083,3.083,0,0,0,.933,2.256,3.022,3.022,0,0,0,2.28.955" transform="translate(-66.062 -221.438)" fill="#002846"/>
    <path id="Path_5156" data-name="Path 5156" d="M450.676,265.4a3.185,3.185,0,0,0,.005,4.54,3.185,3.185,0,0,0,4.542,0,3.265,3.265,0,0,0,0-4.549,3.264,3.264,0,0,0-4.55.005" transform="translate(-105.539 -206.88)" fill="#002846"/>
    <path id="Path_5157" data-name="Path 5157" d="M453.654,274.028l3.722-.009a12.3,12.3,0,0,0,3.149-.344,8.467,8.467,0,0,0,2.8-1.535l.207.066a7.093,7.093,0,0,0,2.794,1.528,13.643,13.643,0,0,0,3.105.294l3.543-.009a12.3,12.3,0,0,0,3.147-.344,8.5,8.5,0,0,0,2.8-1.535l.073,0,.137.069a7.08,7.08,0,0,0,2.791,1.528,13.648,13.648,0,0,0,3.1.294l9.068-.007.049-28.745V245.1H488.83l-.052,23.547-3.156,0a4.779,4.779,0,0,1-3.128-.973,4.683,4.683,0,0,1-.823-3.173l.038-9.8v-.184h-5.427l-.042,10.339a5.615,5.615,0,0,1-.4,2.468,2.162,2.162,0,0,1-1.527,1.078,24.081,24.081,0,0,1-3.783.236l-1.07-.033a4.11,4.11,0,0,1-2.565-.929,4.684,4.684,0,0,1-.821-3.173l.042-9.986h-5.431l-.042,10.339a5.566,5.566,0,0,1-.4,2.466,2.155,2.155,0,0,1-1.523,1.08,25.288,25.288,0,0,1-3.922.236c-.264,0-.909-.017-1.061-.03a4.142,4.142,0,0,1-2.614-.933,4.661,4.661,0,0,1-.823-3.171l.04-9.79v-.2H444.9l-.04,10.339a5.594,5.594,0,0,1-.4,2.468,2.159,2.159,0,0,1-1.523,1.082c-.6.143-3.986.228-5.617.233-1.959-.017-2.352-.7-2.482-.929a7.161,7.161,0,0,1-.493-3.2c0-2.739-.038-5.189-.118-7.28l-.044-2.57-10.283-.069a9.767,9.767,0,0,0-4.96,1.28,9.236,9.236,0,0,0-3.473,3.529,10.16,10.16,0,0,0-1.25,4.991,9.977,9.977,0,0,0,1.337,5.052,10.173,10.173,0,0,0,3.651,3.675,9.72,9.72,0,0,0,5.047,1.369,9.908,9.908,0,0,0,3.7-.709,10.767,10.767,0,0,0,3.234-2.055l.233.1a14.92,14.92,0,0,0,1.29,1.174,4.923,4.923,0,0,0,1.568.622,18.561,18.561,0,0,0,3.043.406H441.6a12.335,12.335,0,0,0,3.149-.344,8.532,8.532,0,0,0,2.8-1.535l.208.066a7.108,7.108,0,0,0,2.8,1.528,13.6,13.6,0,0,0,3.1.294m-24.683-9.641a4.523,4.523,0,0,1-1.379,3.35,4.636,4.636,0,0,1-6.627,0,4.821,4.821,0,0,1-.181-6.565,4.073,4.073,0,0,1,3.107-1.268l5.08.062Z" transform="translate(-131.704 -221.151)" fill="#002846"/>
    <path id="Path_5158" data-name="Path 5158" d="M445.668,270.89a3.048,3.048,0,0,0,2.287-.948,3.158,3.158,0,0,0,.926-2.261,3.1,3.1,0,0,0-.926-2.287,3.261,3.261,0,0,0-4.547,0,3.058,3.058,0,0,0-.95,2.284,3.109,3.109,0,0,0,.953,2.258,3.057,3.057,0,0,0,2.256.952" transform="translate(-110.896 -206.88)" fill="#002846"/>
    <path id="Path_5159" data-name="Path 5159" d="M438.642,265.4a3.265,3.265,0,0,0,.008,4.55,3.046,3.046,0,0,0,2.282.948,2.989,2.989,0,0,0,2.232-.955,3.265,3.265,0,0,0,0-4.543,3.192,3.192,0,0,0-4.521,0" transform="translate(-114.384 -206.886)" fill="#002846"/>
    <path id="Path_5160" data-name="Path 5160" d="M314.682,273.962l0-10.916c.04-2.9.056-11.43.056-17.887l-5.37-.04c-.005,6.23-.026,15.318-.056,17.929v10.914Z" transform="translate(-208.99 -221.137)" fill="#002846"/>
    <path id="Path_5161" data-name="Path 5161" d="M262.651,251.321a3.092,3.092,0,0,0,2.289-.948,3.181,3.181,0,0,0,.924-2.266,3.133,3.133,0,0,0-.926-2.286,3.248,3.248,0,0,0-4.545.005,3.053,3.053,0,0,0-.952,2.28,3.1,3.1,0,0,0,.953,2.258,3.061,3.061,0,0,0,2.256.957" transform="translate(-245.735 -221.303)" fill="#002846"/>
    <path id="Path_5162" data-name="Path 5162" d="M284.863,273.961l0-10.916c.038-2.9.056-11.43.056-17.887l-5.37-.036c0,6.2-.026,15.266-.057,17.925v10.914Z" transform="translate(-230.961 -221.136)" fill="#002846"/>
    <path id="Path_5163" data-name="Path 5163" d="M257.916,251.321a2.975,2.975,0,0,0,2.223-.952,3.163,3.163,0,0,0,.927-2.263,3.112,3.112,0,0,0-.922-2.284,3.21,3.21,0,0,0-4.515,0,3.112,3.112,0,0,0-.922,2.284,3.146,3.146,0,0,0,.922,2.261,3.079,3.079,0,0,0,2.287.953" transform="translate(-249.223 -221.303)" fill="#002846"/>
    <path id="Path_5164" data-name="Path 5164" d="M286.671,270.109a7.229,7.229,0,0,0,1.07.054l7.531-.05v-5.362l-7.527.037a4.068,4.068,0,0,1-3.112-1.256,4.87,4.87,0,0,1-.46-5.787,4.633,4.633,0,0,1,5.271-1.971c.035.009.51.155,1,.3l3.18-4.321c-.488-.243-1.061-.471-1.238-.554a10.1,10.1,0,0,0-12.961,4.057,9.776,9.776,0,0,0-1.363,5.042,10.809,10.809,0,0,0,.8,4.12l.132.313h-4.281c-2.006,0-2.4-.7-2.536-.933a7.113,7.113,0,0,1-.5-3.2c0-2.741-.038-5.188-.116-7.282l-.045-2.569-10.283-.071a9.767,9.767,0,0,0-4.96,1.282,9.2,9.2,0,0,0-3.472,3.527,10.144,10.144,0,0,0-1.25,4.991,9.9,9.9,0,0,0,1.337,5.049,10.107,10.107,0,0,0,3.651,3.68,9.713,9.713,0,0,0,5.045,1.369,9.939,9.939,0,0,0,3.7-.71,10.947,10.947,0,0,0,3.234-2.055l.224.094a13.538,13.538,0,0,0,1.287,1.169,4.452,4.452,0,0,0,1.579.629,18.833,18.833,0,0,0,3.041.408Zm-20.365-9.632a4.525,4.525,0,0,1-1.382,3.348,4.638,4.638,0,0,1-6.624,0,4.508,4.508,0,0,1-1.382-3.348,4.463,4.463,0,0,1,1.2-3.22,4.092,4.092,0,0,1,3.107-1.266l5.084.061Z" transform="translate(-251.549 -217.341)" fill="#002846"/>
    <path id="Path_5165" data-name="Path 5165" d="M297.567,251.384a2.969,2.969,0,0,0,2.225-.955,3.193,3.193,0,0,0-4.512-4.519,3.177,3.177,0,0,0-.924,2.263,3.112,3.112,0,0,0,.927,2.263,3.049,3.049,0,0,0,2.284.948" transform="translate(-220.011 -221.26)" fill="#002846"/>
    <path id="Path_5166" data-name="Path 5166" d="M353.79,250.59l-10.3-.078a9.772,9.772,0,0,0-4.96,1.282,9.235,9.235,0,0,0-3.473,3.529,10.158,10.158,0,0,0-1.25,4.992,9.942,9.942,0,0,0,1.337,5.049,10.11,10.11,0,0,0,3.654,3.678,9.978,9.978,0,0,0,10.087,0,10.356,10.356,0,0,0,3.684-3.678,9.782,9.782,0,0,0,1.367-5.049c0-2.822-.038-5.23-.116-7.161Zm-5.224,9.724a4.514,4.514,0,0,1-1.381,3.347,4.633,4.633,0,0,1-6.627,0,4.5,4.5,0,0,1-1.381-3.343,4.447,4.447,0,0,1,1.2-3.22,4.1,4.1,0,0,1,3.107-1.266l5.084.059Z" transform="translate(-190.945 -217.165)" fill="#002846"/>
    <path id="Path_5167" data-name="Path 5167" d="M357.588,270.846a3.023,3.023,0,0,0,2.227-.948,3.129,3.129,0,0,0,.922-2.263,3.089,3.089,0,0,0-.922-2.287,3.2,3.2,0,0,0-4.514,0,3.256,3.256,0,0,0,0,4.545,3.025,3.025,0,0,0,2.287.954" transform="translate(-175.79 -206.923)" fill="#002846"/>
    <path id="Path_5168" data-name="Path 5168" d="M408.3,245.05l-.059,23.547H403.3a3.969,3.969,0,0,1-2.906-1.15,5.742,5.742,0,0,1-1.23-3.222,9.985,9.985,0,0,0-4.986-8.7,10.114,10.114,0,0,0-13.774,3.649,9.745,9.745,0,0,0-1.37,5.049l.057,4.37c-1.119.005-5.54.009-5.677.009l-.459-.036a4.2,4.2,0,0,1-2.709-.947,4.655,4.655,0,0,1-.82-3.166l.038-9.787v-.2h-5.427l-.042,10.341a5.573,5.573,0,0,1-.4,2.464,2.175,2.175,0,0,1-1.521,1.085,15.76,15.76,0,0,1-3.138.238h-4.641l-.05-23.547h-5.313l.05,28.919h11.753a12.28,12.28,0,0,0,3.151-.344,8.546,8.546,0,0,0,2.8-1.539l.207.069a7.038,7.038,0,0,0,2.787,1.527,13.449,13.449,0,0,0,3.107.3l16.694-.009a9.768,9.768,0,0,0,7-2.773l.231.1a9.211,9.211,0,0,0,6.775,2.676h10.087l.045-28.722v-.2H408.3ZM393.555,266a4.085,4.085,0,0,1-.9,1.415c-.044.045-.094.073-.139.115a3.89,3.89,0,0,1-.514.431,4.5,4.5,0,0,1-2.522.686h-5.054c-.005-1.035-.019-3.461-.019-4.345l0-.078a4.682,4.682,0,0,1,.241-1.441c.042-.125.064-.259.117-.38a4.343,4.343,0,0,1,.443-.8,5.066,5.066,0,0,1,.615-.722,4.746,4.746,0,0,1,1.534-1.032c.092-.04.194-.075.3-.108s.217-.066.332-.1c.078-.019.153-.042.238-.057a4.746,4.746,0,0,1,1.853,0,4.409,4.409,0,0,1,2.4,1.292,4.773,4.773,0,0,1,1.037,1.527,4.437,4.437,0,0,1,.209.7,4.9,4.9,0,0,1,.139,1.118,5,5,0,0,1-.3,1.777" transform="translate(-179.807 -221.189)" fill="#002846"/>
    <path id="Path_5169" data-name="Path 5169" d="M399.889,274.179v5.42a16.649,16.649,0,0,0,16.5-14.535c.009-.069.1-2.11.1-2.11v-2.595a10,10,0,0,0-4.986-8.685,10.183,10.183,0,0,0-10.1-.007,10.06,10.06,0,0,0-3.68,3.649,9.721,9.721,0,0,0-1.367,5.044,10.274,10.274,0,0,0,1.256,5.057,9.158,9.158,0,0,0,3.468,3.527,9.78,9.78,0,0,0,4.962,1.278c.9,0,1.664,0,2.329-.01a11.148,11.148,0,0,1-8.488,3.967m6.244-9.333h-.085a4.591,4.591,0,0,1-1.737-.311,3.754,3.754,0,0,1-.731-.393,4.115,4.115,0,0,1-.646-.554,4.3,4.3,0,0,1-1.125-2.293,5.642,5.642,0,0,1-.076-.936,4.682,4.682,0,0,1,.342-1.817,4.6,4.6,0,0,1,1.035-1.52,4.514,4.514,0,0,1,3.348-1.386,4.449,4.449,0,0,1,3.284,1.381,4.514,4.514,0,0,1,1.377,3.338v4.49Z" transform="translate(-144.857 -217.298)" fill="#002846"/>
    <path id="Path_5170" data-name="Path 5170" d="M319.206,274.179v5.42a16.642,16.642,0,0,0,16.5-14.535c.009-.069.106-2.11.106-2.11v-2.595a10.009,10.009,0,0,0-4.988-8.685,10.183,10.183,0,0,0-10.1-.007,10.061,10.061,0,0,0-3.68,3.649,9.74,9.74,0,0,0-1.368,5.044,10.3,10.3,0,0,0,1.257,5.057,9.151,9.151,0,0,0,3.47,3.527,9.773,9.773,0,0,0,4.96,1.278c.9,0,1.664,0,2.331-.01a11.148,11.148,0,0,1-8.489,3.967m6.158-9.333a4.072,4.072,0,0,1-3.112-1.258,4.76,4.76,0,0,1,3.522-7.951,4.443,4.443,0,0,1,3.284,1.381,4.516,4.516,0,0,1,1.377,3.338v4.49Z" transform="translate(-204.302 -217.298)" fill="#002846"/>
    <path id="Path_5171" data-name="Path 5171" d="M513.287,274.179v5.42a16.641,16.641,0,0,0,16.5-14.535c.009-.069.106-2.11.106-2.11v-2.595a9.867,9.867,0,0,0-1.346-5.04,9.759,9.759,0,0,0-3.642-3.645,10.113,10.113,0,0,0-13.778,3.642,9.742,9.742,0,0,0-1.369,5.044,10.274,10.274,0,0,0,1.257,5.057,9.158,9.158,0,0,0,3.469,3.527,9.778,9.778,0,0,0,4.962,1.278c.9,0,1.664,0,2.331-.01a11.153,11.153,0,0,1-8.489,3.967m6.391-9.333h-.233c-.085,0-.158-.017-.24-.021-.137-.007-.276-.01-.407-.028h-.021a.482.482,0,0,0-.052-.012,3.923,3.923,0,0,1-2.395-1.2,4.753,4.753,0,0,1,2.124-7.732l.115-.035a4.3,4.3,0,0,1,.545-.118c.155-.024.313-.033.474-.043.09,0,.174-.023.267-.023l.028,0,.033,0a4.442,4.442,0,0,1,3.283,1.381,4.511,4.511,0,0,1,1.379,3.338v4.128l-.012.106-.009.1-.042.016v.144Z" transform="translate(-61.312 -217.298)" fill="#002846"/>
    <path id="Path_5172" data-name="Path 5172" d="M364.606,269.89a3.254,3.254,0,0,0,0-4.547,3.266,3.266,0,0,0-4.552,0,3.232,3.232,0,0,0,2.265,5.5,3.032,3.032,0,0,0,2.284-.955" transform="translate(-172.3 -206.918)" fill="#002846"/>
    <path id="Path_5173" data-name="Path 5173" d="M390.1,263.107v10.912h5.374V263.106c.038-2.9.057-11.431.057-17.889l-5.372-.04c-.005,6.244-.023,15.339-.059,17.93" transform="translate(-149.474 -221.095)" fill="#002846"/>
    <path id="Path_5174" data-name="Path 5174" d="M294.559,250.622,289.2,250.6c0,12.407-.038,18.265-.061,18.559a4.15,4.15,0,0,1-1.358,2.774,4.835,4.835,0,0,1-3.071,1.054v5.4c.557-.049,1.271-.115,1.3-.116a9.665,9.665,0,0,0,5.281-2.277,9.419,9.419,0,0,0,3.161-6.159Z" transform="translate(-227.119 -217.101)" fill="#002846"/>
    <path id="Path_5175" data-name="Path 5175" d="M298.788,280.081a9.418,9.418,0,0,0,3.154-6.119h13.014l.052-28.919H309.7l-.057,23.543H302.1l-.116,0,.078-13.873-5.361-.026c0,12.409-.036,18.265-.061,18.561a4.142,4.142,0,0,1-1.356,2.774,4.858,4.858,0,0,1-3.072,1.054v5.4l1.3-.118a9.646,9.646,0,0,0,5.281-2.275" transform="translate(-221.595 -221.193)" fill="#002846"/>
    <path id="Path_5176" data-name="Path 5176" d="M469.715,274.019V263.106c.038-2.9.057-11.431.059-17.887l-5.374-.042c-.005,6.244-.023,15.339-.059,17.93v10.912Z" transform="translate(-94.773 -221.095)" fill="#002846"/>
    <path id="Path_5177" data-name="Path 5177" d="M400.938,258.509a4.59,4.59,0,0,0,1.737.311h0a4.59,4.59,0,0,1-1.737-.311" transform="translate(-141.486 -211.273)" fill="#002846"/>
    <path id="Path_5178" data-name="Path 5178" d="M399.5,256.644a4.306,4.306,0,0,0,1.125,2.294,4.2,4.2,0,0,0,.648.552,4.111,4.111,0,0,1-.648-.552,4.306,4.306,0,0,1-1.125-2.294" transform="translate(-142.547 -212.647)" fill="#002846"/>
  </g>
</svg>
